<svg id="visual" viewBox="0 0 900 600" width="900" height="600" xmlns="http://www.w3.org/2000/svg" xmlns:xlink="http://www.w3.org/1999/xlink" version="1.1"><path d="M0 91L82 91L82 103L164 103L164 67L245 67L245 151L327 151L327 151L409 151L409 103L491 103L491 157L573 157L573 73L655 73L655 139L736 139L736 67L818 67L818 67L900 67L900 127L900 0L900 0L818 0L818 0L736 0L736 0L655 0L655 0L573 0L573 0L491 0L491 0L409 0L409 0L327 0L327 0L245 0L245 0L164 0L164 0L82 0L82 0L0 0Z" fill="#9ba4b5"></path><path d="M0 175L82 175L82 319L164 319L164 229L245 229L245 379L327 379L327 247L409 247L409 229L491 229L491 253L573 253L573 223L655 223L655 241L736 241L736 361L818 361L818 241L900 241L900 265L900 125L900 65L818 65L818 65L736 65L736 137L655 137L655 71L573 71L573 155L491 155L491 101L409 101L409 149L327 149L327 149L245 149L245 65L164 65L164 101L82 101L82 89L0 89Z" fill="#aeb8c5"></path><path d="M0 259L82 259L82 421L164 421L164 301L245 301L245 445L327 445L327 331L409 331L409 313L491 313L491 319L573 319L573 325L655 325L655 325L736 325L736 415L818 415L818 319L900 319L900 337L900 263L900 239L818 239L818 359L736 359L736 239L655 239L655 221L573 221L573 251L491 251L491 227L409 227L409 245L327 245L327 377L245 377L245 227L164 227L164 317L82 317L82 173L0 173Z" fill="#c3cdd6"></path><path d="M0 481L82 481L82 553L164 553L164 481L245 481L245 547L327 547L327 541L409 541L409 523L491 523L491 499L573 499L573 565L655 565L655 499L736 499L736 535L818 535L818 559L900 559L900 493L900 335L900 317L818 317L818 413L736 413L736 323L655 323L655 323L573 323L573 317L491 317L491 311L409 311L409 329L327 329L327 443L245 443L245 299L164 299L164 419L82 419L82 257L0 257Z" fill="#d9e1e7"></path><path d="M0 601L82 601L82 601L164 601L164 601L245 601L245 601L327 601L327 601L409 601L409 601L491 601L491 601L573 601L573 601L655 601L655 601L736 601L736 601L818 601L818 601L900 601L900 601L900 491L900 557L818 557L818 533L736 533L736 497L655 497L655 563L573 563L573 497L491 497L491 521L409 521L409 539L327 539L327 545L245 545L245 479L164 479L164 551L82 551L82 479L0 479Z" fill="#f1f6f9"></path></svg>