<svg id="visual" viewBox="0 0 900 600" width="900" height="600" xmlns="http://www.w3.org/2000/svg" xmlns:xlink="http://www.w3.org/1999/xlink" version="1.1"><rect x="0" y="0" width="900" height="600" fill="#9BA4B5"></rect><path d="M0 268L129 268L129 290L257 290L257 352L386 352L386 367L514 367L514 320L643 320L643 371L771 371L771 280L900 280L900 279L900 601L900 601L771 601L771 601L643 601L643 601L514 601L514 601L386 601L386 601L257 601L257 601L129 601L129 601L0 601Z" fill="#f1f6f9"></path><path d="M0 443L129 443L129 367L257 367L257 457L386 457L386 403L514 403L514 383L643 383L643 402L771 402L771 387L900 387L900 451L900 601L900 601L771 601L771 601L643 601L643 601L514 601L514 601L386 601L386 601L257 601L257 601L129 601L129 601L0 601Z" fill="#8b9cad"></path><path d="M0 470L129 470L129 489L257 489L257 455L386 455L386 456L514 456L514 444L643 444L643 492L771 492L771 489L900 489L900 455L900 601L900 601L771 601L771 601L643 601L643 601L514 601L514 601L386 601L386 601L257 601L257 601L129 601L129 601L0 601Z" fill="#394867"></path></svg>