<svg id="visual" viewBox="0 0 900 600" width="900" height="600" xmlns="http://www.w3.org/2000/svg" xmlns:xlink="http://www.w3.org/1999/xlink" version="1.1"><rect x="0" y="0" width="900" height="600" fill="#45754e"></rect><defs><linearGradient id="grad1_0" x1="33.3%" y1="0%" x2="100%" y2="100%"><stop offset="20%" stop-color="#45754e" stop-opacity="1"></stop><stop offset="80%" stop-color="#45754e" stop-opacity="1"></stop></linearGradient></defs><defs><linearGradient id="grad2_0" x1="0%" y1="0%" x2="66.7%" y2="100%"><stop offset="20%" stop-color="#45754e" stop-opacity="1"></stop><stop offset="80%" stop-color="#45754e" stop-opacity="1"></stop></linearGradient></defs><g transform="translate(900, 0)"><path d="M0 486.7C-22.5 483.1 -44.9 479.4 -68.9 479.1C-92.8 478.8 -118.3 481.9 -137.1 467C-156 452.2 -168.3 419.4 -182 398.4C-195.6 377.5 -210.5 368.4 -235.7 366.8C-260.9 365.2 -296.4 371.2 -303.9 350.7C-311.3 330.2 -290.8 283.2 -310.6 269.1C-330.4 255.1 -390.5 273.9 -406.3 261.1C-422.2 248.3 -393.8 203.8 -382 174.5C-370.2 145.1 -375 130.9 -397.2 116.6C-419.5 102.4 -459.3 88 -477.1 68.6C-494.9 49.1 -490.8 24.6 -486.7 0L0 0Z" fill="#569d63"></path></g><g transform="translate(0, 600)"><path d="M0 -486.7C16.7 -440.8 33.3 -394.8 57.1 -396.9C80.8 -399 111.6 -449.1 132.7 -451.9C153.8 -454.8 165.1 -410.3 172.8 -378.4C180.5 -346.5 184.6 -327 215.7 -335.7C246.8 -344.3 304.9 -381.1 318.8 -367.9C332.6 -354.6 302.1 -291.5 303.8 -263.3C305.5 -235 339.4 -241.8 369.3 -237.3C399.2 -232.9 425.1 -217.1 422.1 -192.8C419 -168.4 387.1 -135.4 385.7 -113.3C384.4 -91.1 413.6 -79.7 435.5 -62.6C457.5 -45.5 472.1 -22.8 486.7 0L0 0Z" fill="#569d63"></path></g></svg>